<svg xmlns="http://www.w3.org/2000/svg" viewBox="0 0 128 128" width="128" height="128">
  <!-- Background: rounded rect with hand-drawn feel -->
  <rect x="8" y="8" width="112" height="112" rx="24" ry="24" fill="#a78bfa" stroke="#7c3aed" stroke-width="3" stroke-linejoin="round"/>

  <!-- Folder shape (hand-drawn style with slight irregularity) -->
  <path d="M 32 46 C 32 42, 34 40, 38 40 L 52 40 C 53 40, 54 40.5, 55 41.5 L 59 45.5 C 60 46.5, 61 47, 62 47 L 90 47 C 94 47, 96 49, 96 53 L 96 84 C 96 88, 94 90, 90 90 L 38 90 C 34 90, 32 88, 32 84 Z"
        fill="none" stroke="white" stroke-width="4.5" stroke-linecap="round" stroke-linejoin="round"/>

  <!-- Small pencil/pen inside folder (excalidraw reference) -->
  <path d="M 54 62 L 76 62" stroke="white" stroke-width="3.5" stroke-linecap="round" opacity="0.85"/>
  <path d="M 54 71 L 70 71" stroke="white" stroke-width="3.5" stroke-linecap="round" opacity="0.85"/>
  <path d="M 54 80 L 64 80" stroke="white" stroke-width="3.5" stroke-linecap="round" opacity="0.85"/>
</svg>
